<svg xmlns="http://www.w3.org/2000/svg" viewBox="0 0 1024 1024" fill="none">
<path fill="#FEFFFF" opacity="1.000000" stroke="none" 
	d="
M983.000854,606.000000 
	C983.000854,661.825256 983.052795,717.150635 982.970093,772.475769 
	C982.944214,789.815979 979.605530,806.699219 974.993958,823.340759 
	C968.454956,846.937744 957.994202,868.673828 944.053833,888.807373 
	C933.137390,904.573425 920.111633,918.310242 905.704834,930.906860 
	C890.359924,944.323669 873.304260,955.021362 854.886658,963.481750 
	C839.251892,970.663635 822.897583,975.703979 805.947266,979.169189 
	C789.030823,982.627380 772.061340,983.037598 754.950378,983.032288 
	C587.808044,982.980164 420.665710,983.020386 253.523376,982.971619 
	C236.183380,982.966553 219.299896,979.605530 202.658493,974.993835 
	C179.061615,968.454651 157.325043,957.994446 137.191864,944.053589 
	C121.426147,933.136902 107.688705,920.111572 95.092438,905.704285 
	C81.676170,890.358948 70.977348,873.303955 62.517948,854.885864 
	C55.336773,839.250854 50.295654,822.896790 46.830608,805.946289 
	C43.372482,789.029785 42.962425,772.060364 42.967747,754.949463 
	C43.019745,587.807129 42.979511,420.664795 43.028320,253.522461 
	C43.033382,236.182480 46.394115,219.298828 51.006268,202.657547 
	C57.546059,179.061081 68.005318,157.323868 81.946678,137.191086 
	C92.863716,121.425781 105.888603,107.687706 120.296364,95.091759 
	C135.641953,81.675919 152.696548,70.976318 171.114899,62.517601 
	C186.750092,55.337070 203.103958,50.295338 220.054596,46.830349 
	C236.971268,43.372295 253.940598,42.962509 271.051483,42.967823 
	C438.193817,43.019707 605.336182,42.979504 772.478516,43.028320 
	C789.818481,43.033386 806.702332,46.393570 823.343262,51.006527 
	C846.939087,57.547413 868.677551,68.004517 888.809753,81.946907 
	C904.574463,92.864578 918.313293,105.888779 930.908936,120.296967 
	C944.324341,135.642853 955.024658,152.697037 963.482849,171.115616 
	C970.662903,186.750931 975.704895,203.104675 979.169800,220.055450 
	C982.627686,236.972305 983.042236,253.941498 983.032776,271.052429 
	C982.970825,382.534912 983.000854,494.017456 983.000854,606.000000 
M284.872681,594.500000 
	C284.872833,621.993286 284.962494,649.487000 284.845734,676.979797 
	C284.746307,700.402039 288.263580,723.214905 297.540314,744.744446 
	C324.190826,806.595398 370.812347,843.703674 437.629028,852.732178 
	C462.208130,856.053406 487.523132,854.919434 512.466125,854.316162 
	C546.735657,853.487427 576.796448,840.814758 601.868225,817.418823 
	C617.328613,802.991882 632.070740,787.781616 646.871033,772.664246 
	C669.277649,749.777527 683.174683,722.510010 686.036560,690.477356 
	C687.573853,673.270569 687.306519,655.880432 687.337158,638.572144 
	C687.349121,631.837952 688.804077,626.433899 692.990417,620.818787 
	C707.942627,600.763123 705.622253,571.385010 688.401489,553.191345 
	C670.284607,534.050842 641.537476,530.213684 619.942139,544.054199 
	C618.195618,545.173584 616.452515,546.298340 613.978821,547.889526 
	C613.978821,545.147339 613.978882,543.372314 613.978760,541.597290 
	C613.976257,500.773743 614.021423,459.950073 613.944092,419.126678 
	C613.918884,405.819366 609.613159,393.919525 600.903503,383.823212 
	C585.320374,365.759247 563.383057,360.519257 538.545715,368.753448 
	C529.715393,344.874939 513.046326,330.370605 487.197083,329.943542 
	C460.441376,329.501526 443.115997,344.083679 433.716919,368.655975 
	C433.103088,368.500763 432.635284,368.411835 432.186523,368.264832 
	C393.328705,355.537659 358.470490,380.800262 358.397705,421.747437 
	C358.388306,427.045441 358.396423,432.343475 358.396423,437.475098 
	C352.714355,436.526459 347.527374,435.119598 342.285950,434.873993 
	C310.422089,433.380707 285.035431,457.561218 284.908997,489.525024 
	C284.771912,524.182861 284.874573,558.841614 284.872681,594.500000 
M798.126343,645.625916 
	C797.185852,646.568787 796.203552,647.473877 795.310913,648.460022 
	C774.932190,670.975525 749.656738,681.760620 719.234619,680.361145 
	C714.621338,680.148926 709.989868,680.331543 705.523804,680.331543 
	C704.348145,690.457947 703.237793,700.021240 702.088928,709.916382 
	C711.681824,709.916382 720.987732,710.185242 730.273499,709.866638 
	C759.756592,708.854980 785.577942,698.431458 807.091919,678.275024 
	C820.701843,665.523743 833.820679,652.219666 846.703796,638.728088 
	C864.755798,619.823486 875.840149,597.254150 878.091553,571.149231 
	C879.490540,554.928406 878.848389,538.535645 879.319702,522.225769 
	C879.381104,520.102234 880.097595,517.590332 881.398560,515.972351 
	C895.951904,497.873566 895.806946,472.766418 880.859558,455.828491 
	C865.619446,438.558685 840.768250,435.285095 820.935425,447.926392 
	C819.804932,448.646942 818.630371,449.298370 817.007812,450.259521 
	C817.007812,413.237610 817.111633,377.079437 816.970520,340.922241 
	C816.879456,317.602692 799.500732,298.157745 776.279358,296.038300 
	C768.704651,295.346924 760.919006,296.965820 752.849487,297.555939 
	C745.832581,279.301910 732.538025,267.195557 711.669250,266.145355 
	C688.077942,264.958160 672.939880,277.426941 664.492859,298.774750 
	C663.075745,298.357605 661.960022,298.036591 660.848755,297.700958 
	C633.641174,289.484222 606.859497,305.537537 601.760498,333.527771 
	C600.610107,339.842773 601.206909,346.467224 600.846802,352.940735 
	C600.746887,354.736908 600.098877,356.502625 599.674377,358.407867 
	C614.830078,367.947937 624.291565,382.220032 630.381348,399.454468 
	C630.381348,397.672760 630.381287,395.891022 630.381348,394.109314 
	C630.381958,377.112366 630.424988,360.115234 630.357910,343.118530 
	C630.337097,337.854889 631.725220,333.165558 635.655212,329.603424 
	C640.614624,325.108246 646.407471,323.579132 652.753418,326.296082 
	C659.560303,329.210388 662.951721,334.557953 663.048340,341.983063 
	C663.549255,380.471985 664.014771,418.961395 664.589722,457.449219 
	C664.731689,466.947174 671.084167,473.302979 679.749451,473.061737 
	C688.248169,472.825134 694.187256,466.393005 694.116089,457.178284 
	C693.971924,438.516388 693.659668,419.855896 693.477417,401.194214 
	C693.189453,371.701996 692.904358,342.209625 692.721924,312.716644 
	C692.670227,304.358917 697.281982,298.147675 704.530884,296.180450 
	C715.469299,293.211975 725.122253,300.898499 725.132324,312.782349 
	C725.176208,364.772949 725.152893,416.763672 725.155640,468.754333 
	C725.155701,470.420593 725.072266,472.094635 725.199646,473.751831 
	C725.815125,481.760498 732.195679,487.902649 739.911621,487.982178 
	C747.892273,488.064453 754.365601,481.816284 754.857483,473.513885 
	C754.945984,472.019135 754.886169,470.515228 754.886230,469.015564 
	C754.888733,426.689819 754.895081,384.364105 754.887146,342.038361 
	C754.885742,334.571106 758.327026,329.274658 765.091797,326.323151 
	C771.424866,323.559967 777.220520,325.107391 782.217041,329.540009 
	C786.537964,333.373260 787.414246,338.516998 787.408569,344.082611 
	C787.345764,405.404877 787.369507,466.727234 787.369751,528.049561 
	C787.369751,529.690674 787.369751,531.331848 787.369751,533.304321 
	C785.406067,533.685913 783.798584,533.987976 782.195435,534.311462 
	C762.243713,538.336731 744.912842,547.399658 730.226746,561.476807 
	C723.446228,567.976196 722.846924,577.084717 728.654663,583.312134 
	C734.524353,589.605957 743.638611,589.686096 750.488220,583.113342 
	C764.876587,569.306580 782.042969,562.503845 801.863647,561.901489 
	C811.261841,561.615967 816.950928,555.664673 817.012146,546.288391 
	C817.076294,536.457275 816.890442,526.622070 817.103577,516.794922 
	C817.442261,501.179962 822.886169,487.536285 833.551575,476.048218 
	C840.333496,468.743073 850.403503,467.870239 857.199280,473.984039 
	C864.194885,480.277588 864.635498,490.159698 857.850525,497.604279 
	C852.131775,503.879059 849.628601,511.061554 849.723328,519.465881 
	C849.866089,532.128418 849.935547,544.798706 849.660034,557.457520 
	C849.133789,581.631958 840.775635,602.671204 823.703552,620.013184 
	C815.404602,628.443359 806.994141,636.763672 798.126343,645.625916 
M250.697250,201.626892 
	C221.427048,196.445969 196.189636,217.336655 195.915573,246.991287 
	C195.868835,252.047699 195.908966,257.104889 195.908966,262.309479 
	C194.631393,262.180206 194.123978,262.216064 193.675064,262.070984 
	C163.951584,252.463791 132.997284,275.079346 133.506592,308.887054 
	C134.289719,360.869843 133.649506,412.873260 133.780243,464.867523 
	C133.800293,472.844208 134.083496,480.917450 135.314804,488.778473 
	C145.203430,551.910400 191.540161,600.237183 253.871567,612.689941 
	C258.180054,613.550659 262.595673,613.875000 267.073456,614.463440 
	C267.073456,604.117371 267.073456,594.532166 267.073456,584.836182 
	C265.306091,584.543823 263.841400,584.295288 262.374634,584.059814 
	C207.702805,575.280090 164.485367,527.451172 163.495453,472.380005 
	C162.498260,416.903534 163.176407,361.395844 163.260788,305.902069 
	C163.276382,295.638306 171.806824,288.591034 181.963165,289.827576 
	C190.253220,290.836884 195.864853,297.709534 195.881439,307.166992 
	C195.929688,334.664032 195.897827,362.161255 195.907867,389.658386 
	C195.908539,391.489777 195.796997,393.352814 196.080887,395.146820 
	C197.055878,401.308289 200.585938,405.468597 206.530472,407.318848 
	C212.577042,409.200836 218.246552,407.641632 221.714035,402.662659 
	C223.994888,399.387543 225.219650,394.696808 225.240158,390.631531 
	C225.476410,343.804260 225.388275,296.975372 225.403198,250.146927 
	C225.403839,248.153122 225.374313,246.128021 225.690964,244.171249 
	C226.794083,237.354523 232.051712,231.923264 238.664459,230.561356 
	C245.050186,229.246185 252.265045,232.063568 255.358398,237.953384 
	C256.985016,241.050537 257.891602,244.874451 257.954041,248.390945 
	C258.628571,286.379669 259.038635,324.372955 259.597992,362.363892 
	C259.739166,371.952148 265.851074,378.369415 274.448425,378.312805 
	C283.091583,378.255890 289.205933,371.669861 289.118225,362.210266 
	C288.934357,342.380768 288.574097,322.552948 288.383057,302.723480 
	C288.110199,274.395294 287.916229,246.066299 287.706421,217.737503 
	C287.653046,210.531052 290.847229,205.175873 297.386444,202.180374 
	C308.512299,197.083817 320.128052,205.252975 320.138672,218.171906 
	C320.181366,270.166443 320.158264,322.161072 320.161865,374.155640 
	C320.161987,375.821899 320.075775,377.497955 320.221008,379.152679 
	C320.865509,386.493378 326.130890,392.084869 333.137695,392.963257 
	C340.319122,393.863556 346.598145,389.989624 348.954742,382.822998 
	C349.713379,380.515839 349.852936,377.923798 349.855988,375.461609 
	C349.908783,332.799469 349.914917,290.137177 349.879700,247.475006 
	C349.873535,240.004120 353.228546,234.711838 359.884644,231.590912 
	C365.732147,228.849121 372.593048,230.242447 377.442291,234.932343 
	C381.297913,238.661301 382.420624,243.352859 382.411011,248.582413 
	C382.350647,281.412201 382.381866,314.242188 382.382812,347.072083 
	C382.382874,348.809143 382.382812,350.546173 382.382812,351.502991 
	C392.608215,349.541809 402.177246,347.706512 411.822906,345.856506 
	C411.871918,345.520874 412.005615,345.032562 412.005646,344.544250 
	C412.009094,311.214478 412.308044,277.880981 411.899261,244.556137 
	C411.567688,217.523804 385.543671,196.673920 358.771912,201.351593 
	C355.232422,201.970032 351.769501,203.026825 348.255981,203.884308 
	C340.805847,184.216034 327.195404,172.188126 306.159241,171.340240 
	C282.878113,170.401886 267.772980,182.778610 259.540527,203.977448 
	C256.667419,203.194687 254.105789,202.496780 250.697250,201.626892 
z"/>
<path fill="#11192C" opacity="1.000000" stroke="none" 
	d="
M284.872681,594.000000 
	C284.874573,558.841614 284.771912,524.182861 284.908997,489.525024 
	C285.035431,457.561218 310.422089,433.380707 342.285950,434.873993 
	C347.527374,435.119598 352.714355,436.526459 358.396423,437.475098 
	C358.396423,432.343475 358.388306,427.045441 358.397705,421.747437 
	C358.470490,380.800262 393.328705,355.537659 432.186523,368.264832 
	C432.635284,368.411835 433.103088,368.500763 433.716919,368.655975 
	C443.115997,344.083679 460.441376,329.501526 487.197083,329.943542 
	C513.046326,330.370605 529.715393,344.874939 538.545715,368.753448 
	C563.383057,360.519257 585.320374,365.759247 600.903503,383.823212 
	C609.613159,393.919525 613.918884,405.819366 613.944092,419.126678 
	C614.021423,459.950073 613.976257,500.773743 613.978760,541.597290 
	C613.978882,543.372314 613.978821,545.147339 613.978821,547.889526 
	C616.452515,546.298340 618.195618,545.173584 619.942139,544.054199 
	C641.537476,530.213684 670.284607,534.050842 688.401489,553.191345 
	C705.622253,571.385010 707.942627,600.763123 692.990417,620.818787 
	C688.804077,626.433899 687.349121,631.837952 687.337158,638.572144 
	C687.306519,655.880432 687.573853,673.270569 686.036560,690.477356 
	C683.174683,722.510010 669.277649,749.777527 646.871033,772.664246 
	C632.070740,787.781616 617.328613,802.991882 601.868225,817.418823 
	C576.796448,840.814758 546.735657,853.487427 512.466125,854.316162 
	C487.523132,854.919434 462.208130,856.053406 437.629028,852.732178 
	C370.812347,843.703674 324.190826,806.595398 297.540314,744.744446 
	C288.263580,723.214905 284.746307,700.402039 284.845734,676.979797 
	C284.962494,649.487000 284.872833,621.993286 284.872681,594.000000 
M505.256317,404.500092 
	C505.247467,397.334137 505.374817,390.164734 505.193207,383.003143 
	C504.993622,375.131927 499.907074,368.360413 492.733032,365.942505 
	C479.407837,361.451447 466.845795,370.595093 466.963043,385.026581 
	C467.415253,440.685303 467.980682,496.343170 468.564484,552.000732 
	C468.715240,566.374634 462.617706,574.581116 451.330383,574.794983 
	C440.352417,575.003113 433.865753,566.743347 433.672577,552.341187 
	C433.513916,540.509949 433.319580,528.679138 433.165771,516.847839 
	C432.745483,484.520996 432.357117,452.193726 431.916504,419.867126 
	C431.742249,407.079926 421.870026,398.224457 409.797729,399.920288 
	C399.884216,401.312805 393.298523,409.700104 393.295258,421.080780 
	C393.279358,476.576385 393.288788,532.072021 393.283722,587.567627 
	C393.283508,589.733459 393.350159,591.909302 393.174347,594.063232 
	C392.540314,601.830566 386.647156,608.108276 378.970551,609.314575 
	C367.354370,611.139893 358.492432,603.244385 358.431458,590.718689 
	C358.326813,569.220886 358.400787,547.722229 358.399139,526.223938 
	C358.398193,514.058228 358.399261,501.892548 358.393188,489.726837 
	C358.389160,481.689362 355.044037,475.482025 347.815460,471.863983 
	C334.556396,465.227539 319.982391,474.604523 319.970551,489.775024 
	C319.921600,552.603333 319.991089,615.431763 319.927795,678.260071 
	C319.904205,701.682983 324.654633,724.013306 335.936646,744.557983 
	C359.919647,788.231201 396.754700,813.721191 446.416565,818.696289 
	C466.889709,820.747314 487.699585,820.000366 508.341949,819.658875 
	C535.376221,819.211670 559.195801,809.777039 578.848450,791.037109 
	C593.313782,777.243591 607.335266,762.978027 621.365417,748.736572 
	C642.394714,727.390503 652.591919,701.604614 652.433899,671.655029 
	C652.359192,657.489990 652.602173,643.322449 652.438416,629.159058 
	C652.322510,619.132874 655.569214,610.655029 662.428894,603.333801 
	C669.858826,595.404053 669.542725,583.648254 662.010071,576.356018 
	C654.217407,568.812073 642.476440,568.951965 634.687317,576.846497 
	C623.828491,587.852234 616.460632,600.947937 615.070068,616.357910 
	C613.801147,630.418640 614.152100,644.635254 614.011292,658.785400 
	C613.871399,672.833801 607.895691,679.157593 593.835449,679.743164 
	C571.269165,680.683044 551.763489,688.863586 535.408936,704.490784 
	C527.696960,711.859680 516.659485,712.218994 509.904236,705.359192 
	C502.641388,697.983948 502.929169,687.322815 510.850952,679.583618 
	C523.536377,667.190613 538.153137,657.745544 554.992310,652.051758 
	C562.667908,649.456421 570.577515,647.553284 578.872620,645.196533 
	C578.872620,643.501221 578.872620,641.529663 578.872620,639.558167 
	C578.872620,568.397095 578.872864,497.236084 578.871643,426.075043 
	C578.871582,423.408630 578.974182,420.735779 578.827576,418.077026 
	C578.427856,410.826477 574.950500,405.399780 568.570374,402.025635 
	C555.340393,395.028961 540.548584,404.382355 540.497253,419.901367 
	C540.384766,453.898285 540.448059,487.895844 540.441223,521.893127 
	C540.437744,539.225098 540.486877,556.557190 540.415344,573.888916 
	C540.380432,582.349243 535.876465,588.775146 528.589966,591.176697 
	C516.381104,595.200562 505.284546,586.618469 505.275177,572.986877 
	C505.236755,517.157959 505.257416,461.329041 505.256317,404.500092 
z"/>
<path fill="#131B2D" opacity="1.000000" stroke="none" 
	d="
M798.380249,645.379883 
	C806.994141,636.763672 815.404602,628.443359 823.703552,620.013184 
	C840.775635,602.671204 849.133789,581.631958 849.660034,557.457520 
	C849.935547,544.798706 849.866089,532.128418 849.723328,519.465881 
	C849.628601,511.061554 852.131775,503.879059 857.850525,497.604279 
	C864.635498,490.159698 864.194885,480.277588 857.199280,473.984039 
	C850.403503,467.870239 840.333496,468.743073 833.551575,476.048218 
	C822.886169,487.536285 817.442261,501.179962 817.103577,516.794922 
	C816.890442,526.622070 817.076294,536.457275 817.012146,546.288391 
	C816.950928,555.664673 811.261841,561.615967 801.863647,561.901489 
	C782.042969,562.503845 764.876587,569.306580 750.488220,583.113342 
	C743.638611,589.686096 734.524353,589.605957 728.654663,583.312134 
	C722.846924,577.084717 723.446228,567.976196 730.226746,561.476807 
	C744.912842,547.399658 762.243713,538.336731 782.195435,534.311462 
	C783.798584,533.987976 785.406067,533.685913 787.369751,533.304321 
	C787.369751,531.331848 787.369751,529.690674 787.369751,528.049561 
	C787.369507,466.727234 787.345764,405.404877 787.408569,344.082611 
	C787.414246,338.516998 786.537964,333.373260 782.217041,329.540009 
	C777.220520,325.107391 771.424866,323.559967 765.091797,326.323151 
	C758.327026,329.274658 754.885742,334.571106 754.887146,342.038361 
	C754.895081,384.364105 754.888733,426.689819 754.886230,469.015564 
	C754.886169,470.515228 754.945984,472.019135 754.857483,473.513885 
	C754.365601,481.816284 747.892273,488.064453 739.911621,487.982178 
	C732.195679,487.902649 725.815125,481.760498 725.199646,473.751831 
	C725.072266,472.094635 725.155701,470.420593 725.155640,468.754333 
	C725.152893,416.763672 725.176208,364.772949 725.132324,312.782349 
	C725.122253,300.898499 715.469299,293.211975 704.530884,296.180450 
	C697.281982,298.147675 692.670227,304.358917 692.721924,312.716644 
	C692.904358,342.209625 693.189453,371.701996 693.477417,401.194214 
	C693.659668,419.855896 693.971924,438.516388 694.116089,457.178284 
	C694.187256,466.393005 688.248169,472.825134 679.749451,473.061737 
	C671.084167,473.302979 664.731689,466.947174 664.589722,457.449219 
	C664.014771,418.961395 663.549255,380.471985 663.048340,341.983063 
	C662.951721,334.557953 659.560303,329.210388 652.753418,326.296082 
	C646.407471,323.579132 640.614624,325.108246 635.655212,329.603424 
	C631.725220,333.165558 630.337097,337.854889 630.357910,343.118530 
	C630.424988,360.115234 630.381958,377.112366 630.381348,394.109314 
	C630.381287,395.891022 630.381348,397.672760 630.381348,399.454468 
	C624.291565,382.220032 614.830078,367.947937 599.674377,358.407867 
	C600.098877,356.502625 600.746887,354.736908 600.846802,352.940735 
	C601.206909,346.467224 600.610107,339.842773 601.760498,333.527771 
	C606.859497,305.537537 633.641174,289.484222 660.848755,297.700958 
	C661.960022,298.036591 663.075745,298.357605 664.492859,298.774750 
	C672.939880,277.426941 688.077942,264.958160 711.669250,266.145355 
	C732.538025,267.195557 745.832581,279.301910 752.849487,297.555939 
	C760.919006,296.965820 768.704651,295.346924 776.279358,296.038300 
	C799.500732,298.157745 816.879456,317.602692 816.970520,340.922241 
	C817.111633,377.079437 817.007812,413.237610 817.007812,450.259521 
	C818.630371,449.298370 819.804932,448.646942 820.935425,447.926392 
	C840.768250,435.285095 865.619446,438.558685 880.859558,455.828491 
	C895.806946,472.766418 895.951904,497.873566 881.398560,515.972351 
	C880.097595,517.590332 879.381104,520.102234 879.319702,522.225769 
	C878.848389,538.535645 879.490540,554.928406 878.091553,571.149231 
	C875.840149,597.254150 864.755798,619.823486 846.703796,638.728088 
	C833.820679,652.219666 820.701843,665.523743 807.091919,678.275024 
	C785.577942,698.431458 759.756592,708.854980 730.273499,709.866638 
	C720.987732,710.185242 711.681824,709.916382 702.088928,709.916382 
	C703.237793,700.021240 704.348145,690.457947 705.523804,680.331543 
	C709.989868,680.331543 714.621338,680.148926 719.234619,680.361145 
	C749.656738,681.760620 774.932190,670.975525 795.310913,648.460022 
	C796.203552,647.473877 797.185852,646.568787 798.380249,645.379883 
z"/>
<path fill="#121A2D" opacity="1.000000" stroke="none" 
	d="
M251.120697,201.712875 
	C254.105789,202.496780 256.667419,203.194687 259.540527,203.977448 
	C267.772980,182.778610 282.878113,170.401886 306.159241,171.340240 
	C327.195404,172.188126 340.805847,184.216034 348.255981,203.884308 
	C351.769501,203.026825 355.232422,201.970032 358.771912,201.351593 
	C385.543671,196.673920 411.567688,217.523804 411.899261,244.556137 
	C412.308044,277.880981 412.009094,311.214478 412.005646,344.544250 
	C412.005615,345.032562 411.871918,345.520874 411.822906,345.856506 
	C402.177246,347.706512 392.608215,349.541809 382.382812,351.502991 
	C382.382812,350.546173 382.382874,348.809143 382.382812,347.072083 
	C382.381866,314.242188 382.350647,281.412201 382.411011,248.582413 
	C382.420624,243.352859 381.297913,238.661301 377.442291,234.932343 
	C372.593048,230.242447 365.732147,228.849121 359.884644,231.590912 
	C353.228546,234.711838 349.873535,240.004120 349.879700,247.475006 
	C349.914917,290.137177 349.908783,332.799469 349.855988,375.461609 
	C349.852936,377.923798 349.713379,380.515839 348.954742,382.822998 
	C346.598145,389.989624 340.319122,393.863556 333.137695,392.963257 
	C326.130890,392.084869 320.865509,386.493378 320.221008,379.152679 
	C320.075775,377.497955 320.161987,375.821899 320.161865,374.155640 
	C320.158264,322.161072 320.181366,270.166443 320.138672,218.171906 
	C320.128052,205.252975 308.512299,197.083817 297.386444,202.180374 
	C290.847229,205.175873 287.653046,210.531052 287.706421,217.737503 
	C287.916229,246.066299 288.110199,274.395294 288.383057,302.723480 
	C288.574097,322.552948 288.934357,342.380768 289.118225,362.210266 
	C289.205933,371.669861 283.091583,378.255890 274.448425,378.312805 
	C265.851074,378.369415 259.739166,371.952148 259.597992,362.363892 
	C259.038635,324.372955 258.628571,286.379669 257.954041,248.390945 
	C257.891602,244.874451 256.985016,241.050537 255.358398,237.953384 
	C252.265045,232.063568 245.050186,229.246185 238.664459,230.561356 
	C232.051712,231.923264 226.794083,237.354523 225.690964,244.171249 
	C225.374313,246.128021 225.403839,248.153122 225.403198,250.146927 
	C225.388275,296.975372 225.476410,343.804260 225.240158,390.631531 
	C225.219650,394.696808 223.994888,399.387543 221.714035,402.662659 
	C218.246552,407.641632 212.577042,409.200836 206.530472,407.318848 
	C200.585938,405.468597 197.055878,401.308289 196.080887,395.146820 
	C195.796997,393.352814 195.908539,391.489777 195.907867,389.658386 
	C195.897827,362.161255 195.929688,334.664032 195.881439,307.166992 
	C195.864853,297.709534 190.253220,290.836884 181.963165,289.827576 
	C171.806824,288.591034 163.276382,295.638306 163.260788,305.902069 
	C163.176407,361.395844 162.498260,416.903534 163.495453,472.380005 
	C164.485367,527.451172 207.702805,575.280090 262.374634,584.059814 
	C263.841400,584.295288 265.306091,584.543823 267.073456,584.836182 
	C267.073456,594.532166 267.073456,604.117371 267.073456,614.463440 
	C262.595673,613.875000 258.180054,613.550659 253.871567,612.689941 
	C191.540161,600.237183 145.203430,551.910400 135.314804,488.778473 
	C134.083496,480.917450 133.800293,472.844208 133.780243,464.867523 
	C133.649506,412.873260 134.289719,360.869843 133.506592,308.887054 
	C132.997284,275.079346 163.951584,252.463791 193.675064,262.070984 
	C194.123978,262.216064 194.631393,262.180206 195.908966,262.309479 
	C195.908966,257.104889 195.868835,252.047699 195.915573,246.991287 
	C196.189636,217.336655 221.427048,196.445969 251.120697,201.712875 
z"/>
<path fill="#FEFEFE" opacity="1.000000" stroke="none" 
	d="
M505.256348,405.000122 
	C505.257416,461.329041 505.236755,517.157959 505.275177,572.986877 
	C505.284546,586.618469 516.381104,595.200562 528.589966,591.176697 
	C535.876465,588.775146 540.380432,582.349243 540.415344,573.888916 
	C540.486877,556.557190 540.437744,539.225098 540.441223,521.893127 
	C540.448059,487.895844 540.384766,453.898285 540.497253,419.901367 
	C540.548584,404.382355 555.340393,395.028961 568.570374,402.025635 
	C574.950500,405.399780 578.427856,410.826477 578.827576,418.077026 
	C578.974182,420.735779 578.871582,423.408630 578.871643,426.075043 
	C578.872864,497.236084 578.872620,568.397095 578.872620,639.558167 
	C578.872620,641.529663 578.872620,643.501221 578.872620,645.196533 
	C570.577515,647.553284 562.667908,649.456421 554.992310,652.051758 
	C538.153137,657.745544 523.536377,667.190613 510.850952,679.583618 
	C502.929169,687.322815 502.641388,697.983948 509.904236,705.359192 
	C516.659485,712.218994 527.696960,711.859680 535.408936,704.490784 
	C551.763489,688.863586 571.269165,680.683044 593.835449,679.743164 
	C607.895691,679.157593 613.871399,672.833801 614.011292,658.785400 
	C614.152100,644.635254 613.801147,630.418640 615.070068,616.357910 
	C616.460632,600.947937 623.828491,587.852234 634.687317,576.846497 
	C642.476440,568.951965 654.217407,568.812073 662.010071,576.356018 
	C669.542725,583.648254 669.858826,595.404053 662.428894,603.333801 
	C655.569214,610.655029 652.322510,619.132874 652.438416,629.159058 
	C652.602173,643.322449 652.359192,657.489990 652.433899,671.655029 
	C652.591919,701.604614 642.394714,727.390503 621.365417,748.736572 
	C607.335266,762.978027 593.313782,777.243591 578.848450,791.037109 
	C559.195801,809.777039 535.376221,819.211670 508.341949,819.658875 
	C487.699585,820.000366 466.889709,820.747314 446.416565,818.696289 
	C396.754700,813.721191 359.919647,788.231201 335.936646,744.557983 
	C324.654633,724.013306 319.904205,701.682983 319.927795,678.260071 
	C319.991089,615.431763 319.921600,552.603333 319.970551,489.775024 
	C319.982391,474.604523 334.556396,465.227539 347.815460,471.863983 
	C355.044037,475.482025 358.389160,481.689362 358.393188,489.726837 
	C358.399261,501.892548 358.398193,514.058228 358.399139,526.223938 
	C358.400787,547.722229 358.326813,569.220886 358.431458,590.718689 
	C358.492432,603.244385 367.354370,611.139893 378.970551,609.314575 
	C386.647156,608.108276 392.540314,601.830566 393.174347,594.063232 
	C393.350159,591.909302 393.283508,589.733459 393.283722,587.567627 
	C393.288788,532.072021 393.279358,476.576385 393.295258,421.080780 
	C393.298523,409.700104 399.884216,401.312805 409.797729,399.920288 
	C421.870026,398.224457 431.742249,407.079926 431.916504,419.867126 
	C432.357117,452.193726 432.745483,484.520996 433.165771,516.847839 
	C433.319580,528.679138 433.513916,540.509949 433.672577,552.341187 
	C433.865753,566.743347 440.352417,575.003113 451.330383,574.794983 
	C462.617706,574.581116 468.715240,566.374634 468.564484,552.000732 
	C467.980682,496.343170 467.415253,440.685303 466.963043,385.026581 
	C466.845795,370.595093 479.407837,361.451447 492.733032,365.942505 
	C499.907074,368.360413 504.993622,375.131927 505.193207,383.003143 
	C505.374817,390.164734 505.247467,397.334137 505.256348,405.000122 
z"/>
</svg>
